<svg xmlns="http://www.w3.org/2000/svg" width="256" height="256" viewBox="0 0 100 100"><rect width="100" height="100" rx="20" fill="#000000"></rect><path fill="#fff" d="M20.32 63.94L20.32 63.94Q24.07 63.94 26.00 62.24Q27.94 60.53 27.94 57.84L27.94 57.84Q27.94 55.49 26.45 54.03Q24.97 52.58 21.78 51.62L21.78 51.62L16.90 50.17Q13.32 49.10 11.28 47.03Q9.23 44.96 9.23 41.43L9.23 41.43Q9.23 39.30 10.04 37.60Q10.86 35.89 12.37 34.71Q13.88 33.54 15.98 32.89Q18.08 32.25 20.71 32.25L20.71 32.25Q22.95 32.25 24.88 32.61Q26.82 32.98 28.24 33.62Q29.67 34.26 30.46 35.05Q31.24 35.83 31.24 36.67L31.24 36.67Q31.24 37.46 30.85 38.02Q30.46 38.58 29.84 38.91L29.84 38.91Q28.38 37.79 26.06 36.95Q23.74 36.11 20.88 36.11L20.88 36.11Q17.58 36.11 15.70 37.51Q13.82 38.91 13.82 41.43L13.82 41.43Q13.82 43.39 15.17 44.62Q16.51 45.86 19.65 46.75L19.65 46.75L23.06 47.76Q27.49 49.05 30.04 51.37Q32.58 53.70 32.58 57.84L32.58 57.84Q32.58 62.26 29.39 65.01Q26.20 67.75 20.32 67.75L20.32 67.75Q17.74 67.75 15.64 67.30Q13.54 66.86 12.06 66.13Q10.58 65.40 9.76 64.53Q8.95 63.66 8.95 62.82L8.95 62.82Q8.95 61.87 9.54 61.23Q10.13 60.58 10.91 60.30L10.91 60.30Q11.53 60.92 12.42 61.56Q13.32 62.21 14.50 62.74Q15.67 63.27 17.13 63.61Q18.58 63.94 20.32 63.94ZM49.61 63.94L49.61 63.94Q53.36 63.94 55.29 62.24Q57.22 60.53 57.22 57.84L57.22 57.84Q57.22 55.49 55.74 54.03Q54.26 52.58 51.06 51.62L51.06 51.62L46.19 50.17Q42.61 49.10 40.56 47.03Q38.52 44.96 38.52 41.43L38.52 41.43Q38.52 39.30 39.33 37.60Q40.14 35.89 41.66 34.71Q43.17 33.54 45.27 32.89Q47.37 32.25 50 32.25L50 32.25Q52.24 32.25 54.17 32.61Q56.10 32.98 57.53 33.62Q58.96 34.26 59.74 35.05Q60.53 35.83 60.53 36.67L60.53 36.67Q60.53 37.46 60.14 38.02Q59.74 38.58 59.13 38.91L59.13 38.91Q57.67 37.79 55.35 36.95Q53.02 36.11 50.17 36.11L50.17 36.11Q46.86 36.11 44.99 37.51Q43.11 38.91 43.11 41.43L43.11 41.43Q43.11 43.39 44.46 44.62Q45.80 45.86 48.94 46.75L48.94 46.75L52.35 47.76Q56.78 49.05 59.32 51.37Q61.87 53.70 61.87 57.84L61.87 57.84Q61.87 62.26 58.68 65.01Q55.49 67.75 49.61 67.75L49.61 67.75Q47.03 67.75 44.93 67.30Q42.83 66.86 41.35 66.13Q39.86 65.40 39.05 64.53Q38.24 63.66 38.24 62.82L38.24 62.82Q38.24 61.87 38.83 61.23Q39.42 60.58 40.20 60.30L40.20 60.30Q40.82 60.92 41.71 61.56Q42.61 62.21 43.78 62.74Q44.96 63.27 46.42 63.61Q47.87 63.94 49.61 63.94ZM71.95 32.98L90.54 32.98Q90.71 33.26 90.88 33.73Q91.05 34.21 91.05 34.77L91.05 34.77Q91.05 35.72 90.60 36.28Q90.15 36.84 89.31 36.84L89.31 36.84L74.08 36.84L74.08 48.49L88.58 48.49Q88.75 48.77 88.92 49.24Q89.09 49.72 89.09 50.28L89.09 50.28Q89.09 51.23 88.64 51.79Q88.19 52.35 87.35 52.35L87.35 52.35L74.08 52.35L74.08 66.97Q73.80 67.08 73.21 67.19Q72.62 67.30 72.01 67.30L72.01 67.30Q69.49 67.30 69.49 65.29L69.49 65.29L69.49 35.44Q69.49 34.32 70.16 33.65Q70.83 32.98 71.95 32.98L71.95 32.98Z"></path></svg>